<svg width="206" height="154" viewBox="0 0 206 154" fill="none" xmlns="http://www.w3.org/2000/svg">
<rect x="2.52966" y="2.64871" width="200.703" height="148.307" rx="7.5" fill="#9AE89C" stroke="#4FAE52" stroke-width="5" stroke-linecap="round"/>
<g clip-path="url(#clip0_106_336)">
<path d="M114.266 138.498L108.092 119.855C113.568 113.311 117.324 105.735 119.08 97.6964C120.836 89.6581 120.545 81.3661 118.23 73.4433C118.818 65.5976 119.152 59.0506 119.346 54.1638C119.614 47.3959 119.301 51.8877 119.554 42.1141C119.715 37.694 119.418 33.2702 118.669 28.8995C117.925 24.8428 117.181 22.8345 115.27 21.9843C114.53 21.6693 113.717 21.5183 112.9 21.5439C112.082 21.5695 111.283 21.771 110.569 22.1316C107.921 23.5374 107.876 27.0787 107.676 33.5119C107.162 50.2945 106.932 45.0997 106.85 55.1545C106.85 56.3394 106.85 60.0146 106.523 64.9014C106.285 68.6168 105.868 72.1982 105.779 72.1915C105.69 72.1848 105.831 63.3283 106.872 52.8517C106.939 52.1287 107.215 44.1491 107.75 31.2827C107.869 28.3104 108.04 24.3541 105.362 22.6537C104.405 22.0788 103.293 21.7472 102.143 21.6942C100.994 21.6412 99.8497 21.8686 98.832 22.3525C95.8568 23.9391 96.2213 27.7079 96.3403 44.8185C96.3403 49.5046 96.3923 55.188 96.0725 62.4513C95.7452 69.9757 95.4477 70.2702 95.5295 70.2836C96.2733 70.384 97.2775 42.2145 95.113 34.8039C94.4139 32.3872 93.0155 31.6107 92.718 31.4567C92.718 31.4567 90.628 30.3656 87.1321 31.6174C80.6537 33.9002 82 65.3098 82.5281 75.0031C81.3286 74.3312 79.8913 74.092 78.5042 74.3337C71.8695 75.8198 67.2655 93.1313 75.2017 101.184C76.5654 102.551 78.2361 103.642 80.1033 104.384C80.9066 104.565 82.2454 104.753 83.1454 104.103C84.0454 103.454 84.0008 102.53 84.0454 99.6247C84.0454 97.6164 84.0454 95.9495 84.0454 94.6642" stroke="#4FAE51" stroke-width="3" stroke-miterlimit="10"/>
<path d="M90.2412 141.571L95.6039 121.341C90.929 120.231 86.8181 117.712 83.9561 114.205C81.6698 111.323 80.3342 107.919 80.1033 104.384" stroke="#4FAE51" stroke-width="3" stroke-miterlimit="10"/>
<path d="M118.416 96.0232C118.498 98.2122 116.348 100.2 114.399 101.138C111.506 102.537 107.49 101.459 99.5832 99.2432C86.1503 95.4943 85.347 95.2266 83.733 94.5571C79.4934 92.7363 70.4488 88.8469 71.0885 85.7608C71.5794 83.3576 77.738 82.5141 79.6793 82.2463C82.5727 81.8447 85.8379 81.838 96.5039 84.4086C104.247 86.2763 109.676 88.0034 114.801 91.4711C116.586 92.656 118.349 94.0885 118.416 96.0232Z" stroke="#4FAE51" stroke-width="3" stroke-miterlimit="10"/>
</g>
<defs>
<clipPath id="clip0_106_336">
<rect width="51.4258" height="121.287" fill="white" transform="translate(69.891 20.525)"/>
</clipPath>
</defs>
</svg>
